<?xml version="1.0" encoding="utf-8"?>
<!-- Generator: Adobe Illustrator 26.5.0, SVG Export Plug-In . SVG Version: 6.00 Build 0)  -->
<svg version="1.1" xmlns="http://www.w3.org/2000/svg" xmlns:xlink="http://www.w3.org/1999/xlink" x="0px" y="0px"
	 viewBox="0 0 992.6 223.9" style="enable-background:new 0 0 992.6 223.9;" xml:space="preserve">
<style type="text/css">
	.st0{fill:#003060;}
	.st1{fill:#306090;}
	.st2{fill:url(#SVGID_1_);}
	.st3{fill:url(#SVGID_00000159437655066801641050000016770244916651781274_);}
</style>
<g id="r">
	<g>
		<path class="st0" d="M328.6,103.3c-5.1-7.9-11.2-12.3-13.1-13.6c-6.8-4.7-13.2-6.5-15.9-7.2c-1.8-0.4-6.4-1.4-12.3-1.2
			c-4.6,0.1-7.9,0.9-8.8,1.1c-2.3,0.5-5.2,1.4-8.3,2.9c-0.6,0.3-2.3,1.1-4.3,2.4c-1.3,0.8-3.6,2.3-6.2,4.7c-1.3,1.2-2.2,2.1-2.5,2.5
			c-1,1-1.8,2-2.4,2.8c0.1-14.1,0.1-28.3,0.1-42.5c0-4.8,0-9.7,0-14.5c-5.2,0-10.5,0-15.7,0c0,10.2,0,18.4,0,24.2c0,6.3,0,14.2,0,21
			c0,4.8,0,7.2,0,9.6c0,11.6,0,15.1,0.1,21.4c0,11.2-0.2,11.2,0,16.3c0.2,5.9,0.7,9.1,1.6,12.7c0.8,3,1.7,5.2,2.3,6.7
			c2.5,6.2,5.3,10,5.9,10.8c0.7,0.9,1.4,1.8,1.6,2.1c1.4,1.7,3.5,4.2,6.7,6.9c2.3,1.9,4.2,3.1,5.4,3.9c1.1,0.7,2.2,1.4,3.7,2.1
			c0,0,6.1,2.5,6.1,2.5c1.7,0.6,4,1.3,6.8,1.8c5.8,1.1,10.5,0.9,12.1,0.8c1.9-0.1,7.1-0.6,13.4-3c5.7-2.2,9.7-4.9,11.6-6.3
			c0,0,12.9-9.5,17.9-25.6c0.4-1.4,0.7-2.5,0.9-3.2c0.5-2,1.5-6.7,1.6-12.7C336.8,128.3,336.7,115.8,328.6,103.3z M312.7,155.8
			c-3.1,4-6.3,6.3-7.5,7.1c-3.9,2.6-7.3,3.7-8.6,4.1c-5.9,1.7-10.7,1.2-12.3,1c-0.8-0.1-4-0.6-7.8-2.2c-1.2-0.5-4.1-1.9-7.2-4.4
			c-0.9-0.7-4.3-3.5-7.5-8.3c-0.3-0.4-5.9-9.2-6.2-20.3c0-1.4-0.1-3.9,0.5-7.2c0.4-2.4,1-4.2,1.8-6.6c0.3-1,0.7-1.9,1.1-3
			c0.2-0.5,0.7-1.5,1.4-2.7c0.8-1.4,1.5-2.3,2-3c0,0,1.3-1.8,2.7-3.4c4.1-4.6,9.3-7.2,9.3-7.2c6.2-3.2,11.9-3.4,13.3-3.4
			c1.1,0,9.2-0.1,16.9,4.9c0.6,0.4,2.3,1.5,4.4,3.4c0.9,0.8,3.6,3.4,6.2,7.6c0.8,1.4,2.3,4,3.5,7.6c0.6,1.8,2,6.5,2,12.8
			c0,4.6-0.8,8.2-1.3,9.8c-0.5,1.8-1.3,4.6-3,7.9C315.6,151.3,314.5,153.4,312.7,155.8z"/>
		<path class="st1" d="M912.2,40.6l15.9,0l0,84.2c14,0,18.6,0,19.3,0c0.4,0,0.8,0,1.5,0c0.5,0,0.6,0,0.9,0c0.4,0,0.6,0,1,0
			c0.1,0,0.4,0,0.7,0c0,0,0.6,0,1.4-0.1c2.1-0.2,3.9-0.5,3.9-0.5c1.1-0.2,3.3-0.7,5.9-1.8c1-0.5,3-1.4,5.2-3.2c0.8-0.6,3.5-3,5.5-7
			c1.2-2.4,1.7-4.5,2-5.7c0.4-1.6,0.6-3,0.7-4c0-3.2,0.1-5.8,0.1-7.6c0-2,0-3.2,0-5.8c0-2.3,0-4.1,0-5.3c5.3,0,10.7,0,16,0
			c0,10.1,0,14.3,0,15.6c0,0.1,0,0.3,0,0.5c0,1.8-0.1,3.3-0.2,4.2c-0.3,2.7-1,5.4-1.2,6.2c-0.4,1.3-1.1,3.7-2.5,6.7
			c-1.8,3.7-3.8,6.2-4.7,7.2c-2.6,3-5.1,4.9-6.3,5.7c-0.8,0.6-1.5,1-2,1.3c0.2,0.1,0.6,0.3,0.9,0.6c1,0.6,2.6,1.6,4.5,3.3
			c2,1.7,3.2,3.3,3.7,3.9c0.2,0.2,0.8,1,1.5,2.1c0.5,0.8,1.9,3,3.2,6.2c0.7,1.9,1.1,3.3,1.4,4.3c0.3,1.2,0.8,3.3,1.2,6.4
			c0.4,3.5,0.4,6.2,0.4,8.1c0,5,0,9.7,0,14.7c-5.4,0-10.7,0-16.1,0v-8.1c0-5.6,0-8.3,0-9.5c0-0.1,0-0.5,0-1c0-0.4,0-1.6-0.3-3.4
			c-0.3-2.2-0.8-3.8-0.9-4.2c-0.4-1.6-0.8-2.7-1.5-4.2c-0.3-0.5-1-1.8-2.2-3.2c-0.5-0.6-1.6-1.8-3.3-3c-1.6-1.2-3-1.8-3.8-2.1
			c-0.5-0.2-2.4-1-5.5-1.6c-1.4-0.3-3-0.5-6.7-0.6c-4.3-0.2-7.4-0.1-7.4-0.1c-3.4,0.1-8.6,0.1-16.4,0l0,8.7l0,32.3h-15.8V40.6z"/>
		<path class="st0" d="M354.6,143.2c0,0.1,0,0.7,0,1.6c0,0.6,0,1.4,0,1.8c0,1.4,0.1,2.5,0.2,3.3c0.1,0.6,0.2,2.3,0.5,4
			c0.6,3.7,1.7,6.6,2.1,7.6c0.6,1.5,1.5,3.7,3.3,6.4c0.7,1,2.4,3.4,5.1,5.8c1.4,1.2,4,3.3,7.2,4.7c1.6,0.7,3.4,1.2,3.5,1.3
			c1.2,0.3,2.1,0.6,2.6,0.7c0.9,0.2,1.6,0.3,2.4,0.4c1,0.2,1.4,0.2,1.7,0.2c0.7,0.1,1.3,0.1,1.5,0.1c0.2,0,0.2,0,1,0c0.5,0,1,0,2,0
			c0.7,0,0.8,0,1.2,0c1,0,1.5,0,1.7,0c0.7,0,1.3-0.1,1.6-0.1c0.5-0.1,0.9-0.1,1.2-0.2c0-5.1,0-10.1,0-15.2c-0.3,0-0.7,0-1.1,0
			c-0.9,0-1.4,0-1.5,0c-0.3,0-1.2,0-3.6-0.4c-1.6-0.2-2.4-0.3-3.1-0.5c-1.5-0.4-2.8-0.9-3.7-1.3c-1.1-0.5-2.6-1.3-4.1-2.8
			c-0.5-0.5-0.8-0.9-1.1-1.2c-0.4-0.4-1.7-2.2-2.8-4.8c-0.4-1-0.8-2.4-1.1-4.1c-0.3-1.7-0.4-3.1-0.4-4.1c0-0.2,0-0.3,0-2.4
			c0-1.6,0-2.4,0-2.8c0-2.6,0-5.2,0-7.3c0-1.8,0-0.9,0-6.6c0-6.1,0-6.9,0-9.2c0-0.6,0-1.7,0-3.3c0-2,0-3.5,0-3.9c0-4.9,0-14.4,0-29
			c0-4,0-5.7,0-9c0-2.9,0-4.1,0-11.1c0-4.1,0-11.1,0-13.3c0-1.7,0-6.2,0-7.9c-5.4,0-10.7,0-16.1,0
			C354.6,111,354.6,142.1,354.6,143.2z"/>
		<path class="st0" d="M405.5,83.7c5.4,0,10.7,0,16.1,0c0,3.4-0.1,55.2,0,60c0,0.4,0,1.2,0.1,2.2c0.1,1.1,0.4,3.4,1.4,6.1
			c0.6,1.7,1.7,4.6,4.3,7.7c0.5,0.6,2.5,2.8,5.8,4.7c3.3,1.9,6.2,2.5,7.8,2.8c4.9,0.9,8.8,0.3,10.3,0.1c3-0.6,5.1-1.5,6-1.9
			c1.4-0.6,3.8-1.8,6.2-4.1c0.4-0.4,2.2-2.1,3.8-4.9c1.3-2.3,1.9-4.2,2.2-5.3c0.7-2.5,0.9-4.5,1-5.1c0.1-1,0.1-2.1,0.1-4.2
			c0-0.4,0-1.3,0-2.9c0-1.7,0-2.9,0-3.3c0-1.3,0-2.9,0-4.9c0-15.6,0-31.2,0-46.8c5.4,0,10.8,0,16.2,0c0,6.2,0,12.4,0,18.5
			c0,6.6,0,13.1,0,19.7c0,4.4,0,8.9,0,13.3c0,2.9,0,5.4,0,7.3c0,1.2,0,1.8-0.1,2.7c-0.1,1.3-0.2,4.1-0.9,7.1c-0.2,1.1-1,4.5-2.9,8.5
			c-2.9,6.1-6.6,9.9-7.4,10.8c-6.1,6.2-12.8,8.5-15.4,9.3c-5,1.6-9.2,1.9-11.5,2c-5.6,0.3-10-0.5-11.9-0.9c-1.5-0.3-4.2-0.9-7.4-2.2
			c-5.4-2.2-8.9-5.1-10.1-6.1c-1.2-1.1-4.1-3.6-6.8-7.6c-0.6-1-2.6-4-4.2-8.4c-1.2-3.4-1.8-6.5-2.1-8.9c-0.1-1.1-0.3-2.9-0.4-5.2
			c-0.2-4-0.1-6.9,0-8.4c0-0.3,0-8.1,0-23.7c0-1.7,0-3.5,0-5.2C405.5,99.5,405.5,90.1,405.5,83.7z"/>
		<path class="st0" d="M583.1,153.6c-0.3,0.4-1.1,1.7-2.5,3.2c-0.8,1-1.8,2.1-3.2,3.4c-0.5,0.4-2,1.7-4.2,3.1
			c-1.2,0.8-2.3,1.3-2.9,1.6c-0.6,0.3-1.9,0.9-3.5,1.4c-0.6,0.2-2.8,0.9-6,1.3c-4.8,0.7-8.6,0.2-10.1,0c-2.4-0.3-4.1-0.8-4.6-1
			c-1.1-0.3-4.3-1.3-7.9-3.5c-1.5-0.9-2.6-1.8-3.2-2.2c-1.4-1.1-2.2-1.9-3.9-3.5c-1.8-1.7-2.5-2.6-3.2-3.7c-0.3-0.4-0.5-0.8-0.6-1
			l74.4-31.5l-0.7-2.7c-0.2-0.6-0.4-1.4-0.7-2.3c-0.1-0.2-0.8-2.3-1.5-4.1c-1.5-3.6-3.4-6.8-3.8-7.5c-2.8-4.6-5.6-7.6-6.5-8.6
			c-4.7-4.9-9.2-7.6-10.6-8.5c-1.5-0.9-5.1-2.8-10.1-4.3c-4.7-1.4-8.4-1.7-9.8-1.8c-0.6,0-2.8-0.2-5.7-0.1c-3.2,0.2-5.7,0.6-6.8,0.8
			c-4.4,0.8-7.8,2.1-9.7,2.9c-1.6,0.7-7.5,3.3-13.7,9c-4.3,4-7.1,7.9-8.5,10.2c-1.4,2.3-5.9,9.7-7.4,20.3c-0.2,1.7-0.8,6.2-0.4,12
			c0.4,5,1.4,8.8,1.7,10c1.2,4.4,2.7,7.6,3.5,9.2c0.8,1.5,1.9,3.5,3.4,5.7c0.6,0.9,2.5,3.6,5.4,6.6c1.7,1.8,3.1,3,3.5,3.3
			c0.7,0.6,2.1,1.8,4.2,3.2c1.4,1,4.9,3.2,9.9,5.1c2.7,1,4.9,1.6,6.1,1.9c3.1,0.8,5.5,1,6.1,1.1c2.6,0.3,4.6,0.2,7,0.2
			c1.4,0,2.8,0,4.8-0.2c1.4-0.1,3.3-0.3,5.8-0.9c1.3-0.3,2.3-0.6,3.5-0.9c1.2-0.3,2.2-0.6,3.6-1.1c1.5-0.5,2.7-1.1,3.5-1.5
			c1.3-0.6,3.4-1.6,5.8-3.3c1-0.7,1.8-1.4,3.2-2.5c1.2-1,1.6-1.4,1.9-1.6c0.9-0.8,1.5-1.5,2.3-2.3c0.6-0.6,1.5-1.6,2.5-3
			c1.1-1.4,1.7-2.2,2.5-3.3c0.4-0.6,0.7-1.2,1.5-2.5c0.8-1.4,1.2-2,1.5-2.7c1-1.9,1.6-3.5,2.1-4.7c0.2-0.4,0.3-0.8,0.4-1l0.2-0.6
			l-16.6,0C584.4,151.5,583.9,152.5,583.1,153.6z M522.4,138.7l-0.2-0.1l-0.1-0.3l-0.2-1.4l-0.2-1.6v-4.8l0.2-2.9l0.4-2.2l0.7-3.3
			l0.6-2.1l0.7-2l0.9-2.1l1.4-2.6l1.6-2.5l1.4-1.8l1.4-1.7l2.5-2.5l2.6-2.1l1.2-0.9l3.5-2l1.2-0.6l4.3-1.6l3.1-0.8l3.4-0.4l4.1,0.1
			l2,0.3l0.9,0.3l3,0.7l2.5,0.9l3,1.4l3.1,1.8l3.3,2.5l2.1,2l1.2,1.5l1.7,2l2.5,3.6L522.4,138.7z"/>
		<path class="st1" d="M707.7,105c-4.9-8.2-10.7-12.8-12.3-14c-4.2-3.2-8.2-5-9.9-5.8c-1.7-0.7-4-1.6-6.9-2.4
			c-2-0.5-6.4-1.5-12.2-1.6c-8.4,0-14.6,2.1-16.1,2.6c-1.1,0.4-4.6,1.7-8.6,4.2c-9,5.5-14,12.5-16,15.7c-1.1,1.8-3.7,6.1-5.6,12.3
			c-1.8,5.9-2.3,11-2.3,13.9c0-0.1-0.1-0.2-0.1-0.3c0,31.4,0,62.9,0,94.3h15.6c0-18.9,0-37.9,0-56.8c0.4,0.6,1,1.3,1.8,2.2
			c0.3,0.3,1.3,1.4,3,3c2.1,1.9,4,3.2,4.8,3.7c2.6,1.8,4.8,2.9,5.9,3.4c1.2,0.6,3.9,1.8,7.5,2.8c1.4,0.4,2.9,0.8,5.1,1
			c1.7,0.2,2.9,0.2,5.2,0.2c2.9,0,4.3,0,6-0.2c3.3-0.4,5.9-1.1,7.9-1.7c1.2-0.4,3.2-1,5.7-2.1c1.3-0.6,3.3-1.5,5.7-3
			c0.3-0.2,2.2-1.4,4.3-3c5.9-4.7,9.7-10.3,10.2-11c1-1.4,3.8-5.8,6-12.2c1-2.8,2.9-9.3,2.8-17.8C715,117.4,708.9,107,707.7,105z
			 M666.2,168.4c-3.1,0-5.5-0.5-6.7-0.8c-1-0.2-3.4-0.9-6.1-2.2c-0.9-0.4-4.5-2.2-8.3-5.8c-1.5-1.4-4.8-4.7-7.4-9.9
			c-0.9-1.8-4.1-8.4-4.1-17.3c0-1.7,0.1-4.3,0.8-7.5c1.1-5.2,3-9.1,4.1-11c1.2-2.2,4.2-7.3,10-11.5c3.1-2.3,5.9-3.4,7.1-3.9
			c5.2-2,9.5-2.1,10.6-2.1c1.1,0,4.3,0,8.3,1.2c1,0.3,4.5,1.4,8.5,4c1.1,0.7,3.5,2.4,6,5c7.1,7.5,8.8,16.3,9.3,19
			c0.6,3.3,0.6,6.2,0.6,7c0,1.5-0.1,3.8-0.6,6.5c-0.1,0.5-0.4,2.1-1,4.2c-0.5,1.9-1.4,4.9-3.4,8.3c-2.3,4.2-5,6.9-6.3,8.1
			c-1.5,1.4-4.2,3.7-8,5.6c-0.9,0.5-2.4,1.2-4.4,1.9C674.4,167.3,670.9,168.4,666.2,168.4z"/>
		<path class="st1" d="M728,132.2c0,8.5,1.9,15,2.9,17.7c1.3,3.8,5.2,14.7,16.1,23.3c6.6,5.2,12.9,7.3,15.6,8.1
			c6,1.8,11.1,2,13.9,1.9c5-0.1,8.8-1,10.2-1.4c1.8-0.5,5.5-1.6,9.8-3.9c2.1-1.1,5.1-2.8,8.3-5.9c2.3-2.2,3.9-4.4,5-6.1
			c0,2.2,0.1,4.5,0.1,6.8c0,2.7,0,5.4,0,8c5.2,0,10.3,0,15.5,0c0-6.7-0.1-13.4-0.1-20.1c0-10.4,0-20.8,0-31.1l0,0
			c0-0.5-0.1-1-0.1-1.4c-0.2-3.2-0.8-7.5-2.3-12.4c-1.9-6.2-4.5-10.5-5.7-12.2c-4.8-7.5-10.5-11.8-12.9-13.6
			c-4.6-3.2-8.8-5-11.3-5.9c-3.1-1.1-9-2.9-16.6-2.8c-4.1,0-11.2,0.6-19,4c-2.3,1-14.2,6.5-22.3,19.9C728.2,116.9,728,128,728,132.2
			z M744.2,132.4c0-0.9,0-4.3,0.9-8.5c0.3-1.3,0.7-3.4,1.7-5.9c0.3-0.7,1.3-3.3,3.3-6.4c1.7-2.6,3.3-4.4,4-5.2
			c1.7-1.9,3.3-3.1,3.8-3.5c1.4-1.1,4.1-3.3,8.3-4.8c4.6-1.7,8.5-1.8,10.4-1.8c1.3,0,3.4,0,6,0.5c3.1,0.6,5.3,1.7,7,2.5
			c1.2,0.6,3,1.4,5.1,3c2.9,2.1,4.7,4.2,5.8,5.6c0.7,0.8,2.4,2.9,4,5.8c4.6,8.4,4.9,16.6,4.9,18.8c0,5.1-1,9-1.5,10.9
			c-0.7,2.4-1.5,4.4-2.1,5.5c-1.8,3.9-3.8,6.5-4.5,7.2c-3.8,4.8-8,7.3-9.2,8c-1.1,0.7-3.1,1.7-5.7,2.6c-1.7,0.6-5.2,1.7-9.8,1.7
			c-3,0-5.4-0.6-6.7-0.9c-2.4-0.6-4.2-1.3-5.3-1.7c-2.7-1.1-4.5-2.3-5-2.7c-3.5-2.3-5.6-4.9-6.9-6.5c-2.1-2.6-3.5-4.9-4-5.9
			C747.8,149,744.2,141.9,744.2,132.4z"/>
		<path class="st1" d="M848.2,180.8c0-3.7,0-51.3,0-51.5c0-1.4,0-2.8,0-4.2c0-0.7,0-1.5,0-2.2c0-0.7,0-1.1,0-1.6
			c0-0.7,0.1-1.3,0.1-1.5c0.3-2.5,0.2-2.7,0.4-4.3c0.2-1.6,0.5-2.7,0.6-3.4c0.4-1.8,0.8-3.2,0.9-3.6c0.4-1.4,1.1-3.5,2.2-5.7
			c2.2-4.6,4.7-7.6,5.3-8.2c3.1-3.6,6.2-5.8,7.9-7c0.9-0.6,5.3-3.4,11.8-4.9c3.9-0.9,7.2-1.1,8.6-1.1c2.5-0.1,4.9,0,5.6,0.1
			c1.3,0.1,2.4,0.2,3.2,0.2c0,5-0.1,10-0.1,15c-0.1,0-0.3,0-0.4,0c-0.6,0-1,0-1.2,0c-0.9,0-3.3,0-3.8,0c-0.7,0-3,0-5.7,0.6
			c-0.8,0.2-2,0.4-3.5,0.9c-1.2,0.4-2.5,0.8-4.2,1.7c-1.8,0.9-3,1.9-3.5,2.3c-2.3,1.9-3.6,3.9-4.4,5.1c-1.4,2.3-2.2,4.2-2.4,4.9
			c-0.8,2.4-1.1,4.3-1.2,5.9c-0.2,1.7-0.2,3-0.2,3.5c-0.1,3.5-0.1,27-0.1,59.2C858.9,180.8,853.6,180.8,848.2,180.8z"/>
	</g>
</g>
<g id="Left_Mid">
	<g>
		<linearGradient id="SVGID_1_" gradientUnits="userSpaceOnUse" x1="91.705" y1="75.9112" x2="91.705" y2="-1.7733">
			<stop  offset="0" style="stop-color:#5E8EBE"/>
			<stop  offset="0.2185" style="stop-color:#5485B6"/>
			<stop  offset="0.5845" style="stop-color:#3A6D9F"/>
			<stop  offset="0.673" style="stop-color:#336699"/>
		</linearGradient>
		<path class="st2" d="M183,71.6c-0.6-1.5-1.2-2.6-1.8-3.6c-1.2-2.1-1.8-3.2-2.5-4.2c-1.1-1.6-2.2-2.8-3-3.7c-1-1.1-2.2-2.4-4.1-3.7
			c-3.5-2.5-7.2-3.8-11.4-4.3h0c0-0.1-0.1-0.2-0.3-0.5c-0.1-0.1-0.2-0.3-0.2-0.4c0-0.1-0.1-0.1-0.1-0.2c0,0,0,0,0,0
			c0,0,0-0.1-0.1-0.1c0,0,0,0,0-0.1c0,0,0-0.1,0-0.1c0,0,0-0.1,0-0.1c-0.5-1-1.2-2.3-2.1-3.8c-0.7-1-1.2-1.8-2.2-3.1
			c-1.9-2.5-2.8-3.7-3-3.9c-2-2.2-3.8-3.8-4.9-4.6c-4.8-3.8-10.6-6.4-16.8-6.8c-0.4,0-0.7,0-0.9,0c-0.9-2.2-1.8-3.9-2.6-5.2
			c-0.9-1.6-1.8-2.7-2.5-3.9c-0.8-1.1-2-2.8-3.5-4.7c-1.3-1.5-3.1-3.6-5.8-5.8C103.3-0.8,86.6-2.6,73.4,5.3c-1,0.6-3,1.8-5.3,3.8
			c-0.6,0.5-2.6,2.2-5,4.8c-0.5,0.6-2,2.2-3.7,4.7c-1.6,2.3-3.7,5.6-5.8,9.9c-0.2,0-0.5,0-0.8,0c-6.1,0.3-12,3-16.8,6.8
			c-1.1,0.8-2.9,2.4-4.9,4.6c-0.2,0.2-1.1,1.5-3,3.9c-1,1.3-1.5,2-2.2,3.1c-0.9,1.4-1.6,2.6-2.1,3.6c0,0,0,0.1-0.1,0.2c0,0,0,0,0,0
			c0,0,0,0.1,0,0.1c0,0.1-0.1,0.1-0.1,0.2c0,0,0,0,0,0s0,0,0,0v0c-0.1,0.1-0.1,0.2-0.2,0.4c-0.1,0.1-0.1,0.2-0.2,0.3
			c-0.1,0.1-0.1,0.2-0.1,0.3c-0.1,0.1-0.1,0.2-0.1,0.2c0,0,0,0,0,0c0-0.1,0-0.1,0-0.2c-0.2,0-0.3,0-0.3,0c-4.4,0.5-8.4,2.3-11.8,5.1
			c-0.5,0.4-2.4,1.9-4.4,4.2c-0.5,0.5-2.1,2.5-3.8,5.3C1.9,68.2,0.9,70,0,72.2l4.5,4.2c0.6-1.5,1.5-3.7,2.8-5.8
			c0.9-1.5,3.2-4.2,5.4-6.3c3.2-3.1,7.7-4.7,12.1-4.9c2-0.1,4.1,0.3,4.6,0.5c2.5,0.6,4.2,1.7,5.4,2.4c2.9,1.8,4.7,3.9,5.6,5
			c1.6,1.9,2.6,3.5,3.3,4.8c0.9,1.5,1.7,3.1,2.1,4.2l4.4-3.9c-0.1-0.1-0.3-0.6-0.4-0.8c-0.6-1.5-1.2-2.6-1.8-3.6
			c-1.2-2.1-1.8-3.2-2.5-4.2c-1.1-1.6-2.2-2.9-3-3.7c-2.4-2.6-5.2-4.7-8.4-6.2c-0.9-0.4-1.6-0.8-2.7-1.1l0.2-0.3
			c0.8-1.3,2-2.9,3.5-4.6c2-2.3,3.9-3.7,4.8-4.4c1.5-1.1,4-3,7.7-4.2c1-0.3,2.6-0.8,4.7-1.1c0,0,3.5-0.4,6.8,0.4
			c0.9,0.2,1.8,0.5,1.8,0.5c1,0.3,1.7,0.6,2,0.7c0.8,0.3,1.5,0.6,1.8,0.8c0.5,0.2,0.9,0.4,1.5,0.8c0.2,0.1,0.7,0.4,1.4,0.9
			c0.3,0.2,0.2,0.1,1.1,0.8c0.6,0.4,0.7,0.5,1,0.7c0.1,0.1,0.4,0.3,0.8,0.7c0.3,0.3,0.6,0.6,0.8,0.7c-0.1,0-0.1,0.1-0.2,0.2
			c-1.8,1.8-3,3.3-4.1,4.7c-0.9,1.2-2.1,2.7-3.4,4.9c-1,1.8-1.8,3.3-2.3,4.5l1.8,1.8l1.7,1.5c1.5-2.3,3-4.1,4.2-5.5
			c2.5-2.8,4.8-4.5,5.4-4.9c1.1-0.8,2.7-1.9,4.8-3c1.4-0.8,3.1-1.6,5.4-2.3c0.6-0.2,2.7-0.7,5.5-0.9c2-0.1,3.6,0,4.8,0.2
			c2,0.2,3.5,0.7,4.2,0.9c1.7,0.5,2.9,1.1,3.8,1.5c0.8,0.4,2.1,1,3.7,2c1.8,1.1,2.9,2.2,4.3,3.4c1.5,1.4,2.3,2,3.1,3
			c0.4,0.5,0.5,0.7,2.9,3.8c0.2,0.2,0.5,0.7,0.7,0.9l0.8,0.9l1.4-1.3l0.9-1l1-0.9c-0.1-0.2-0.2-0.4-0.3-0.7c-1-2-1.9-3.8-2.3-4.4
			c-1.6-3-4-5.8-4.4-6.3c-1.1-1.2-2.1-2.3-3-3.1c0.2-0.2,0.4-0.4,0.7-0.6c0.2-0.2,0.5-0.4,0.8-0.7c0.3-0.2,0.4-0.3,1-0.7
			c0.9-0.7,0.8-0.6,1.1-0.8c2-1.4,4.3-2.4,6.7-3.1c0,0,1-0.3,1.8-0.5c3.4-0.8,6.8-0.4,6.8-0.4c2.2,0.2,3.8,0.8,4.7,1.1
			c3.7,1.2,6.2,3.1,7.7,4.2c0.8,0.6,2.7,2.1,4.8,4.4c1.5,1.7,2.7,3.3,3.5,4.6l0.2,0.4c-0.8,0.3-1.9,0.7-2.9,1.2
			c-2.2,1.1-3.7,2.2-4.7,3c-0.6,0.4-2.4,1.9-4.4,4.2c-0.5,0.5-2.1,2.5-3.8,5.3c-0.9,1.5-1.9,3.3-2.8,5.6l4.5,4.2
			c0.6-1.5,1.5-3.7,2.8-5.8c0.9-1.5,3.2-4.2,5.4-6.3c0.9-0.9,1.7-1.4,4.5-2.9c0.9-0.5,0.2-0.3,2.8-1.2c1.1-0.4,2.8-0.7,4.8-0.8
			c2-0.1,4.1,0.3,4.6,0.4c2.5,0.6,4.2,1.7,5.4,2.4c2.9,1.8,4.7,3.9,5.6,5c1.6,1.9,2.6,3.5,3.3,4.8c0.9,1.5,1.7,3.1,2.1,4.2l4.4-3.9
			C183.4,72.2,183.1,71.8,183,71.6z M116,31.2c-2.3,1.1-3.9,2.3-5.2,3.3c-0.8,0.6-2,1.5-3.3,2.8c-0.9,0.9-1.8,1.9-2.4,2.6
			c-0.5-0.3-1.1-0.6-1.8-0.9c-1.6-0.8-4.2-2-7.8-2.5c-2.1-0.3-3.8-0.2-4.7-0.2c-2.7,0.1-4.8,0.6-5.4,0.8c-3.2,0.8-5.4,2-7,2.9
			c-0.6-0.7-1.7-1.8-2.6-2.7c-0.3-0.2-1.5-1.4-3.3-2.8c-1.3-1-2.9-2.2-5.2-3.3c-1.3-0.6-2.6-1.1-4-1.5c0.5-0.8,1-1.6,1.7-2.6
			c5.2-7.2,12.6-13.2,21.6-14.8c12.9-2.2,26.3,4.8,32.5,16.1c0.3,0.5,0.5,0.9,0.7,1.3C118,30.2,116.8,30.8,116,31.2z"/>
	</g>
</g>
<g id="Layer_8">
	
		<linearGradient id="SVGID_00000070090904073473143940000015400687019504460169_" gradientUnits="userSpaceOnUse" x1="91.5638" y1="92.2175" x2="91.5638" y2="183.4476">
		<stop  offset="0" style="stop-color:#306090"/>
		<stop  offset="1" style="stop-color:#023262"/>
	</linearGradient>
	<path style="fill:url(#SVGID_00000070090904073473143940000015400687019504460169_);" d="M137.6,105.6c0,0.1-0.7,1.3-0.8,1.4
		c-0.2,0.4-2.7,5-6.6,10.1c-4.5,5.8-10.2,12.6-19.6,17.5c-3.1,1.6-5.8,2.6-7.5,3.1v45.7h-23v-45.7c-1.8-0.5-4.5-1.5-7.5-3.1
		c-9.4-4.9-15.1-11.7-19.5-17.5c-3.9-5.1-6.4-9.7-6.6-10.1c-0.1-0.1-0.8-1.4-0.8-1.4l6.7-4l2.9,4.6c0.7,1.2,1.6,2.4,2.6,3.6
		c4.4,5.5,9.3,9.6,13.4,12.5l-1.6-2.6l-2.1-4.2c-0.8-2-1.7-4.3-2.3-6.9c-1.2-4.6-1.7-8.7-1.8-12l7.5-2.1c0.1,0.7,0.1,1.8,0.3,3.1
		c1.3,9,5.4,15.4,7.3,18.1c1.5,2.2,3.9,5.1,7.5,8.1l-0.2-23.3c0,0-0.1-8.3-0.1-8.3c1.9,0,3.9,0,5.8,0c-0.6,0-1.2,0-1.8,0
		c2.6,0,5.3,0,7.9,0l-0.1,8.2v0.1l-0.2,23.3c3.5-2.9,5.9-5.9,7.5-8.1c1.9-2.7,6-9.2,7.3-18.1c0.2-1.3,0.3-2.4,0.3-3.1l7.5,2.1
		c-0.1,3.4-0.5,7.5-1.8,12c-0.7,2.6-1.5,4.9-2.3,6.9l-2.1,4.2l-1.6,2.6c4.1-2.9,8.9-7,13.4-12.5c1-1.2,1.8-2.4,2.6-3.6l2.8-4.6
		L137.6,105.6z"/>
</g>
</svg>
